<svg width="80" height="88" viewBox="0 0 80 88" xmlns="http://www.w3.org/2000/svg"><path fill-rule="evenodd" clip-rule="evenodd" d="M79.2 24.807a5.513 5.513 0 0 0-2.795-4.798L42.305.712a5.49 5.49 0 0 0-5.41 0L2.795 20.01A5.512 5.512 0 0 0 0 24.807v38.386a5.512 5.512 0 0 0 2.795 4.798l34.1 19.297a5.49 5.49 0 0 0 5.41 0l34.1-19.297a5.513 5.513 0 0 0 2.795-4.798V24.807ZM57.177 61.18c4.223 0 6.87-4.57 4.776-8.243L44.603 22.5c-2.112-3.704-7.441-3.704-9.553 0L17.7 52.937c-2.094 3.674.553 8.244 4.776 8.244h34.701Z" fill="000"/></svg>