<svg width="462" height="90" viewBox="0 0 462 90" fill="none" xmlns="http://www.w3.org/2000/svg">
<path fill-rule="evenodd" clip-rule="evenodd" d="M79.2 25.8073C79.2 23.8199 78.1319 21.9865 76.4048 21.0091L42.3048 1.71242C40.6262 0.762527 38.5738 0.762528 36.8952 1.71242L2.79519 21.0091C1.06807 21.9865 0 23.8199 0 25.8073V64.1927C0 66.1801 1.06807 68.0135 2.79519 68.9909L36.8952 88.2876C38.5738 89.2375 40.6262 89.2375 42.3048 88.2876L76.4048 68.9909C78.1319 68.0135 79.2 66.1801 79.2 64.1927V25.8073ZM57.1771 62.1805C61.3996 62.1805 64.0472 57.6106 61.953 53.937L44.6023 23.4995C42.4912 19.7961 37.1616 19.7961 35.0505 23.4995L17.6997 53.937C15.6056 57.6106 18.2532 62.1805 22.4757 62.1805H57.1771Z" fill="white"/>
<path d="M129.762 44.3745C132.355 44.9013 134.442 46.1372 136.023 48.0823C137.644 50.0274 138.454 52.2967 138.454 54.8902C138.454 58.4562 137.259 61.2928 134.868 63.4C132.477 65.4667 129.012 66.5 124.474 66.5H107.393V23.5862H124.17C128.465 23.5862 131.748 24.5587 134.017 26.5038C136.327 28.4084 137.482 31.0424 137.482 34.4058C137.482 37.1209 136.772 39.3294 135.354 41.0313C133.936 42.6928 132.072 43.8071 129.762 44.3745ZM114.323 42.0647H122.893C125.325 42.0647 127.169 41.4973 128.425 40.3627C129.721 39.228 130.37 37.6477 130.37 35.6215C130.37 33.6359 129.721 32.0757 128.425 30.9411C127.169 29.8065 125.244 29.2391 122.65 29.2391H114.323V42.0647ZM123.076 60.7863C125.71 60.7863 127.736 60.1987 129.154 59.0235C130.613 57.8078 131.342 56.1261 131.342 53.9784C131.342 51.8307 130.613 50.149 129.154 48.9333C127.695 47.7176 125.649 47.1098 123.015 47.1098H114.323V60.7863H123.076ZM143.996 23.2823C143.996 22.1071 144.401 21.1345 145.211 20.3646C146.022 19.5947 147.096 19.2097 148.433 19.2097C149.77 19.2097 150.844 19.5947 151.654 20.3646C152.505 21.1345 152.931 22.1071 152.931 23.2823C152.931 24.4574 152.505 25.4097 151.654 26.1391C150.844 26.8685 149.77 27.2333 148.433 27.2333C147.096 27.2333 146.022 26.8685 145.211 26.1391C144.401 25.4097 143.996 24.4574 143.996 23.2823ZM151.898 33.0078V66.5H144.968V33.0078H151.898ZM177.12 60.4823V66.5H172.865C169.299 66.5 166.584 65.649 164.72 63.9471C162.897 62.2046 161.985 59.3274 161.985 55.3157V38.9039H157.183V33.0078H161.985V24.6803H168.975V33.0078H177.059V38.9039H168.975V55.4372C168.975 57.3418 169.32 58.6588 170.008 59.3882C170.738 60.1176 171.994 60.4823 173.777 60.4823H177.12ZM199.233 26.0783C196.518 25.9568 194.613 26.4025 193.519 27.4156C192.425 28.3882 191.878 30.0699 191.878 32.4607V33.0078H199.233V38.9647H191.878V66.5H184.888V38.9647H180.329V33.0078H184.888V31.9137C184.888 27.8208 186.083 24.7614 188.474 22.7352C190.865 20.6685 194.451 19.7568 199.233 19.9999V26.0783ZM203.83 23.2823C203.83 22.1071 204.235 21.1345 205.046 20.3646C205.856 19.5947 206.93 19.2097 208.267 19.2097C209.605 19.2097 210.679 19.5947 211.489 20.3646C212.34 21.1345 212.766 22.1071 212.766 23.2823C212.766 24.4574 212.34 25.4097 211.489 26.1391C210.679 26.8685 209.605 27.2333 208.267 27.2333C206.93 27.2333 205.856 26.8685 205.046 26.1391C204.235 25.4097 203.83 24.4574 203.83 23.2823ZM211.732 33.0078V66.5H204.803V33.0078H211.732ZM238.839 32.4607C242.729 32.4607 245.85 33.7169 248.2 36.2293C250.55 38.7418 251.726 42.3281 251.726 46.9882V66.5H244.796V47.7176C244.796 44.7189 244.026 42.4091 242.486 40.7882C240.946 39.1267 238.839 38.296 236.165 38.296C233.409 38.296 231.201 39.1875 229.539 40.9705C227.878 42.713 227.047 45.2862 227.047 48.6902V66.5H220.118V33.0078H227.047V40.3627C227.939 37.8503 229.438 35.9052 231.545 34.5274C233.652 33.1496 236.084 32.4607 238.839 32.4607ZM258.857 23.2823C258.857 22.1071 259.262 21.1345 260.072 20.3646C260.883 19.5947 261.957 19.2097 263.294 19.2097C264.631 19.2097 265.705 19.5947 266.516 20.3646C267.367 21.1345 267.792 22.1071 267.792 23.2823C267.792 24.4574 267.367 25.4097 266.516 26.1391C265.705 26.8685 264.631 27.2333 263.294 27.2333C261.957 27.2333 260.883 26.8685 260.072 26.1391C259.262 25.4097 258.857 24.4574 258.857 23.2823ZM266.759 33.0078V66.5H259.829V33.0078H266.759ZM291.981 60.4823V66.5H287.727C284.16 66.5 281.445 65.649 279.581 63.9471C277.758 62.2046 276.846 59.3274 276.846 55.3157V38.9039H272.044V33.0078H276.846V24.6803H283.836V33.0078H291.921V38.9039H283.836V55.4372C283.836 57.3418 284.181 58.6588 284.87 59.3882C285.599 60.1176 286.855 60.4823 288.638 60.4823H291.981ZM302.424 33.0078L312.453 57.6255L321.753 33.0078H329.473L309.231 82.4255H301.512L308.745 65.7098L294.643 33.0078H302.424Z" fill="white"/>
<path fill-rule="evenodd" clip-rule="evenodd" d="M348.159 19.5C345.107 19.5 342.633 21.974 342.633 25.0259V64.9741C342.633 68.026 345.107 70.5 348.159 70.5H454.107C457.159 70.5 459.633 68.026 459.633 64.9741V25.0259C459.633 21.974 457.159 19.5 454.107 19.5H348.159ZM360.183 34.7592V42.5354H370.793V47.1246H360.183V55.1983H372.066V60H354.2V30H372.066V34.7592H360.183ZM384.941 30L392.961 53.7535L401.025 30H407.433L396.823 60H389.142L378.533 30H384.941ZM447.2 60V30.3399H439.985L431.158 52.6487L422.162 30.3399H414.905V60H420.889V39.3909L428.485 60H433.662L441.258 39.306V60H447.2Z" fill="white"/>
</svg>
