<svg width="78" height="36" viewBox="0 0 78 36" fill="none" xmlns="http://www.w3.org/2000/svg">
<path fill-rule="evenodd" clip-rule="evenodd" d="M51.5184 33.3466C51.5184 32.4685 50.442 31.9909 49.7329 32.5087C46.728 34.7034 43.0164 36 38.9999 36C34.983 36 31.2713 34.7032 28.2662 32.5083C27.5572 31.9904 26.4807 32.468 26.4807 33.3461V34.896C26.4807 35.4734 25.9923 35.9335 25.4192 35.8631C22.9567 35.5607 20.6472 34.7681 18.5928 33.5867C17.8838 33.1789 16.944 33.6649 16.944 34.4828V34.896C16.944 35.4735 16.455 35.9334 15.8818 35.863C6.92969 34.7634 0 27.1852 0 18.0002C0 8.81512 6.92969 1.23691 15.8818 0.137303C16.455 0.0669 16.944 0.526862 16.944 1.10434V1.51747C16.944 2.33538 17.8838 2.82133 18.5928 2.41358C20.6472 1.23217 22.9567 0.439573 25.4192 0.137187C25.9923 0.0668041 26.4807 0.526821 26.4807 1.10429V2.65389C26.4807 3.53197 27.5572 4.00965 28.2662 3.49173C31.2713 1.29681 34.983 0 38.9999 0C43.0164 0 46.728 1.29663 49.7329 3.49127C50.442 4.00914 51.5184 3.53146 51.5184 2.6534V1.10397C51.5184 0.526507 52.0067 0.0664909 52.5799 0.136863C55.0429 0.43927 57.3529 1.23209 59.4076 2.41387C60.1166 2.82169 61.0565 2.33574 61.0565 1.5178V1.10386C61.0565 0.526376 61.5455 0.0664106 62.1186 0.13683C71.0706 1.23665 78 8.81476 78 17.9996C78 27.1845 71.0706 34.7626 62.1186 35.8624C61.5455 35.9329 61.0565 35.4729 61.0565 34.8954V34.4819C61.0565 33.664 60.1166 33.178 59.4076 33.5858C57.3529 34.7676 55.0429 35.5604 52.5799 35.8628C52.0067 35.9332 51.5184 35.4732 51.5184 34.8957V33.3466ZM10.1111 24.2623C9.55878 24.2623 9.11107 23.8146 9.11107 23.2623V12.7507C9.11107 12.1984 9.55878 11.7507 10.1111 11.7507H18.5032C19.0555 11.7507 19.5032 12.1984 19.5032 12.7507V13.3004C19.5032 13.8527 19.0555 14.3004 18.5032 14.3004H13.3918C12.8396 14.3004 12.3918 14.7481 12.3918 15.3004V15.6497C12.3918 16.202 12.8396 16.6497 13.3918 16.6497H17.6052C18.1574 16.6497 18.6052 17.0974 18.6052 17.6497V18.1448C18.6052 18.697 18.1574 19.1448 17.6052 19.1448H13.3918C12.8396 19.1448 12.3918 19.5925 12.3918 20.1448V20.7126C12.3918 21.2649 12.8396 21.7126 13.3918 21.7126H18.6315C19.1838 21.7126 19.6315 22.1603 19.6315 22.7126V23.2623C19.6315 23.8146 19.1838 24.2623 18.6315 24.2623H10.1111ZM24.618 11.7507C23.9247 11.7507 23.4418 12.4391 23.6777 13.091L27.4811 23.6025C27.6244 23.9985 28.0003 24.2623 28.4214 24.2623H30.8295C31.2511 24.2623 31.6274 23.9979 31.7703 23.6013L35.5583 13.0898C35.7932 12.438 35.3103 11.7507 34.6176 11.7507H33.3759C32.9431 11.7507 32.5593 12.0292 32.4252 12.4408L30.3408 18.8352C30.2919 19.0051 30.2308 19.2115 30.1575 19.4544C30.0842 19.685 30.0109 19.9218 29.9375 20.1646C29.8829 20.371 29.8282 20.5579 29.7736 20.7254C29.7622 20.7604 29.7295 20.7838 29.6927 20.7838C29.6535 20.7838 29.6193 20.7572 29.6093 20.7192C29.5622 20.5415 29.5005 20.3445 29.4243 20.1282C29.351 19.8732 29.2777 19.6304 29.2044 19.3997C29.1311 19.1569 29.07 18.9626 29.0211 18.8169L26.937 12.4401C26.8027 12.0289 26.4191 11.7507 25.9865 11.7507H24.618ZM40.6026 24.2623C40.0503 24.2623 39.6026 23.8146 39.6026 23.2623V12.7507C39.6026 12.1984 40.0503 11.7507 40.6026 11.7507H43.6227C44.0735 11.7507 44.4686 12.0524 44.5874 12.4874L45.9075 17.3236C45.9686 17.5178 46.0419 17.7849 46.1275 18.1249C46.213 18.4527 46.2985 18.7987 46.3841 19.163C46.4626 19.4976 46.5309 19.8015 46.5889 20.0746C46.5977 20.1165 46.6346 20.1464 46.6774 20.1464C46.7201 20.1464 46.7569 20.1166 46.7659 20.0748C46.812 19.8598 46.868 19.6105 46.9339 19.3269C47.0072 18.9991 47.0866 18.6591 47.1722 18.307C47.2577 17.9428 47.3371 17.6089 47.4104 17.3054L48.7469 12.4836C48.8669 12.0505 49.2611 11.7507 49.7106 11.7507H52.6054C53.1577 11.7507 53.6054 12.1984 53.6054 12.7507V23.2623C53.6054 23.8146 53.1577 24.2623 52.6054 24.2623H51.4163C50.864 24.2623 50.4163 23.8146 50.4163 23.2623V18.9262V17.3418C50.4285 16.8076 50.4407 16.3219 50.453 15.8848C50.4636 15.5037 50.4696 15.2149 50.471 15.0184C50.4713 14.9739 50.4352 14.9378 50.3907 14.9378C50.3523 14.9378 50.3192 14.9648 50.3114 15.0024C50.274 15.181 50.2173 15.4266 50.1414 15.7391C50.0681 16.0791 49.9825 16.4373 49.8848 16.8136C49.7992 17.1779 49.7198 17.4935 49.6465 17.7607L48.0191 23.5336C47.8976 23.9646 47.5044 24.2623 47.0566 24.2623H45.9294C45.4826 24.2623 45.09 23.9659 44.9676 23.5361L43.3232 17.7607L43.1033 16.8865C43.0178 16.5465 42.9322 16.2005 42.8467 15.8484C42.7794 15.5252 42.7173 15.2481 42.6603 15.017C42.6514 14.9811 42.6192 14.956 42.5822 14.956C42.5365 14.956 42.4999 14.994 42.5016 15.0397C42.5128 15.3396 42.5239 15.7002 42.5351 16.1216C42.5473 16.5708 42.5595 17.0443 42.5718 17.5421C42.584 18.0278 42.5901 18.4891 42.5901 18.9262V23.2623C42.5901 23.8146 42.1424 24.2623 41.5901 24.2623H40.6026ZM59.9376 23.5611C60.8556 24.0056 61.9679 24.2278 63.2743 24.2278C64.4042 24.2278 65.387 24.0465 66.2226 23.6839C67.07 23.3214 67.7233 22.7776 68.1823 22.0525C68.5011 21.5614 68.712 20.9872 68.8149 20.3298C68.9003 19.7842 68.4408 19.3334 67.8885 19.3334H66.9048C66.3526 19.3334 65.9338 19.7961 65.7473 20.316C65.7032 20.439 65.6498 20.5559 65.5871 20.6667C65.387 21.0292 65.0868 21.304 64.6867 21.4911C64.2983 21.6783 63.8216 21.7718 63.2567 21.7718C62.5976 21.7718 62.0561 21.6432 61.6324 21.3859C61.2205 21.1169 60.9145 20.731 60.7144 20.2281C60.5143 19.7135 60.4143 19.0995 60.4143 18.3861V17.5967C60.4143 16.8833 60.5143 16.2752 60.7144 15.7723C60.9145 15.2695 61.2264 14.8835 61.6501 14.6145C62.0738 14.3456 62.6152 14.2111 63.2743 14.2111C63.8039 14.2111 64.2512 14.3105 64.6161 14.5093C64.9927 14.7081 65.281 14.9946 65.4811 15.3689C65.5424 15.4738 65.5949 15.5851 65.6385 15.7028C65.8302 16.2207 66.2466 16.6845 66.7989 16.6845H67.8885C68.4408 16.6845 68.9006 16.2336 68.8131 15.6883C68.7076 15.0309 68.4915 14.4566 68.1646 13.9655C67.6938 13.2287 67.0347 12.679 66.1873 12.3165C65.3399 11.9422 64.3689 11.7551 63.2743 11.7551C61.3088 11.7551 59.7964 12.2756 58.7371 13.3164C57.6896 14.3456 57.1658 15.901 57.1658 17.9827C57.1658 19.3978 57.4012 20.5672 57.872 21.4911C58.3428 22.415 59.0313 23.105 59.9376 23.5611Z" fill="url(#paint0_linear_1402_6450)"/>
<defs>
<linearGradient id="paint0_linear_1402_6450" x1="39" y1="0" x2="39" y2="47.5" gradientUnits="userSpaceOnUse">
<stop stop-color="black"/>
<stop offset="0.629122" stop-color="black" stop-opacity="0.585"/>
<stop offset="1" stop-color="black" stop-opacity="0"/>
</linearGradient>
</defs>
</svg>
