<svg width="462" height="90" viewBox="0 0 462 90" fill="none" xmlns="http://www.w3.org/2000/svg">
<path fill-rule="evenodd" clip-rule="evenodd" d="M80 25.8073C80 23.8199 78.9211 21.9865 77.1766 21.0091L42.7321 1.71242C41.0366 0.762527 38.9634 0.762528 37.2679 1.71242L2.82342 21.0091C1.07885 21.9865 0 23.8199 0 25.8073V64.1927C0 66.1801 1.07886 68.0135 2.82342 68.9909L37.2679 88.2876C38.9634 89.2375 41.0366 89.2375 42.7321 88.2876L77.1766 68.9909C78.9211 68.0135 80 66.1801 80 64.1927V25.8073ZM57.7546 62.1805C62.0198 62.1805 64.6941 57.6106 62.5788 53.937L45.0529 23.4995C42.9204 19.7961 37.537 19.7961 35.4045 23.4995L17.8785 53.937C15.7632 57.6106 18.4376 62.1805 22.7027 62.1805H57.7546Z" fill="black"/>
<path d="M130.563 44.3745C133.156 44.9013 135.243 46.1372 136.824 48.0823C138.445 50.0274 139.255 52.2967 139.255 54.8902C139.255 58.4562 138.06 61.2928 135.669 63.4C133.278 65.4667 129.813 66.5 125.275 66.5H108.194V23.5862H124.971C129.266 23.5862 132.548 24.5587 134.818 26.5038C137.128 28.4084 138.282 31.0424 138.282 34.4058C138.282 37.1209 137.573 39.3294 136.155 41.0313C134.737 42.6928 132.873 43.8071 130.563 44.3745ZM115.124 42.0647H123.694C126.126 42.0647 127.969 41.4973 129.226 40.3627C130.522 39.228 131.171 37.6477 131.171 35.6215C131.171 33.6359 130.522 32.0757 129.226 30.9411C127.969 29.8065 126.044 29.2391 123.451 29.2391H115.124V42.0647ZM123.877 60.7863C126.511 60.7863 128.537 60.1987 129.955 59.0235C131.414 57.8078 132.143 56.1261 132.143 53.9784C132.143 51.8307 131.414 50.149 129.955 48.9333C128.496 47.7176 126.45 47.1098 123.816 47.1098H115.124V60.7863H123.877ZM144.796 23.2823C144.796 22.1071 145.202 21.1345 146.012 20.3646C146.822 19.5947 147.896 19.2097 149.234 19.2097C150.571 19.2097 151.645 19.5947 152.455 20.3646C153.306 21.1345 153.732 22.1071 153.732 23.2823C153.732 24.4574 153.306 25.4097 152.455 26.1391C151.645 26.8685 150.571 27.2333 149.234 27.2333C147.896 27.2333 146.822 26.8685 146.012 26.1391C145.202 25.4097 144.796 24.4574 144.796 23.2823ZM152.698 33.0078V66.5H145.769V33.0078H152.698ZM177.921 60.4823V66.5H173.666C170.1 66.5 167.385 65.649 165.521 63.9471C163.697 62.2046 162.786 59.3274 162.786 55.3157V38.9039H157.984V33.0078H162.786V24.6803H169.776V33.0078H177.86V38.9039H169.776V55.4372C169.776 57.3418 170.12 58.6588 170.809 59.3882C171.539 60.1176 172.795 60.4823 174.578 60.4823H177.921ZM200.034 26.0783C197.319 25.9568 195.414 26.4025 194.32 27.4156C193.226 28.3882 192.679 30.0699 192.679 32.4607V33.0078H200.034V38.9647H192.679V66.5H185.689V38.9647H181.13V33.0078H185.689V31.9137C185.689 27.8208 186.884 24.7614 189.275 22.7352C191.666 20.6685 195.252 19.7568 200.034 19.9999V26.0783ZM204.631 23.2823C204.631 22.1071 205.036 21.1345 205.847 20.3646C206.657 19.5947 207.731 19.2097 209.068 19.2097C210.406 19.2097 211.479 19.5947 212.29 20.3646C213.141 21.1345 213.566 22.1071 213.566 23.2823C213.566 24.4574 213.141 25.4097 212.29 26.1391C211.479 26.8685 210.406 27.2333 209.068 27.2333C207.731 27.2333 206.657 26.8685 205.847 26.1391C205.036 25.4097 204.631 24.4574 204.631 23.2823ZM212.533 33.0078V66.5H205.604V33.0078H212.533ZM239.64 32.4607C243.53 32.4607 246.65 33.7169 249.001 36.2293C251.351 38.7418 252.526 42.3281 252.526 46.9882V66.5H245.597V47.7176C245.597 44.7189 244.827 42.4091 243.287 40.7882C241.747 39.1267 239.64 38.296 236.965 38.296C234.21 38.296 232.001 39.1875 230.34 40.9705C228.679 42.713 227.848 45.2862 227.848 48.6902V66.5H220.918V33.0078H227.848V40.3627C228.739 37.8503 230.239 35.9052 232.346 34.5274C234.453 33.1496 236.884 32.4607 239.64 32.4607ZM259.658 23.2823C259.658 22.1071 260.063 21.1345 260.873 20.3646C261.684 19.5947 262.758 19.2097 264.095 19.2097C265.432 19.2097 266.506 19.5947 267.316 20.3646C268.167 21.1345 268.593 22.1071 268.593 23.2823C268.593 24.4574 268.167 25.4097 267.316 26.1391C266.506 26.8685 265.432 27.2333 264.095 27.2333C262.758 27.2333 261.684 26.8685 260.873 26.1391C260.063 25.4097 259.658 24.4574 259.658 23.2823ZM267.56 33.0078V66.5H260.63V33.0078H267.56ZM292.782 60.4823V66.5H288.527C284.961 66.5 282.246 65.649 280.382 63.9471C278.559 62.2046 277.647 59.3274 277.647 55.3157V38.9039H272.845V33.0078H277.647V24.6803H284.637V33.0078H292.721V38.9039H284.637V55.4372C284.637 57.3418 284.982 58.6588 285.67 59.3882C286.4 60.1176 287.656 60.4823 289.439 60.4823H292.782ZM303.224 33.0078L313.254 57.6255L322.554 33.0078H330.273L310.032 82.4255H302.313L309.546 65.7098L295.444 33.0078H303.224Z" fill="black"/>
<path fill-rule="evenodd" clip-rule="evenodd" d="M348.959 19.5C345.908 19.5 343.434 21.974 343.434 25.0259V64.9741C343.434 68.026 345.908 70.5 348.959 70.5H454.908C457.96 70.5 460.434 68.026 460.434 64.9741V25.0259C460.434 21.974 457.96 19.5 454.908 19.5H348.959ZM360.984 34.7592V42.5354H371.593V47.1246H360.984V55.1983H372.867V60H355V30H372.867V34.7592H360.984ZM385.742 30L393.762 53.7535L401.825 30H408.233L397.624 60H389.943L379.334 30H385.742ZM448 60V30.3399H440.786L431.959 52.6487L422.962 30.3399H415.706V60H421.689V39.3909L429.286 60H434.463L442.059 39.306V60H448Z" fill="black"/>
</svg>
